<?xml version="1.0" encoding="utf-8"?>
<!-- Generator: Adobe Illustrator 21.0.0, SVG Export Plug-In . SVG Version: 6.00 Build 0)  -->
<svg version="1.1" id="Layer_1" xmlns="http://www.w3.org/2000/svg" xmlns:xlink="http://www.w3.org/1999/xlink" x="0px" y="0px"
	 viewBox="0 0 734.3 588.3" style="enable-background:new 0 0 734.3 588.3;" xml:space="preserve">
<style type="text/css">
	.st0{fill:#E17726;stroke:#E17726;stroke-linecap:round;stroke-linejoin:round;}
	.st1{fill:#E27625;stroke:#E27625;stroke-linecap:round;stroke-linejoin:round;}
	.st2{fill:#D5BFB2;stroke:#D5BFB2;stroke-linecap:round;stroke-linejoin:round;}
	.st3{fill:#233447;stroke:#233447;stroke-linecap:round;stroke-linejoin:round;}
	.st4{fill:#CC6228;stroke:#CC6228;stroke-linecap:round;stroke-linejoin:round;}
	.st5{fill:#E27525;stroke:#E27525;stroke-linecap:round;stroke-linejoin:round;}
	.st6{fill:#F5841F;stroke:#F5841F;stroke-linecap:round;stroke-linejoin:round;}
	.st7{fill:#C0AC9D;stroke:#C0AC9D;stroke-linecap:round;stroke-linejoin:round;}
	.st8{fill:#161616;stroke:#161616;stroke-linecap:round;stroke-linejoin:round;}
	.st9{fill:#763E1A;stroke:#763E1A;stroke-linecap:round;stroke-linejoin:round;}
</style>
<title>Artboard 1</title>
<polygon class="st0" points="483.8,116.6 382.6,191.6 401.4,147.3 "/>
<polygon class="st1" points="250.6,116.6 350.8,192.3 332.9,147.3 "/>
<polygon class="st1" points="447.4,290.5 420.5,331.7 478.1,347.5 494.5,291.4 "/>
<polygon class="st1" points="239.9,291.4 256.2,347.5 313.8,331.7 287,290.5 "/>
<polygon class="st1" points="310.6,220.8 294.6,245.1 351.7,247.6 349.7,186.2 "/>
<polygon class="st1" points="423.6,220.8 384,185.5 382.6,247.6 439.7,245.1 "/>
<polygon class="st1" points="313.8,331.7 348.2,314.9 318.6,291.8 "/>
<polygon class="st1" points="386.1,314.9 420.5,331.7 415.7,291.8 "/>
<polygon class="st2" points="420.5,331.7 386.1,314.9 388.8,337.4 388.5,346.8 "/>
<polygon class="st2" points="313.8,331.7 345.8,346.8 345.6,337.4 348.2,314.9 "/>
<polygon class="st3" points="346.4,277 317.8,268.5 338,259.3 "/>
<polygon class="st3" points="387.9,277 396.3,259.3 416.6,268.5 "/>
<polygon class="st4" points="313.8,331.7 318.8,290.5 287,291.4 "/>
<polygon class="st4" points="415.5,290.5 420.5,331.7 447.4,291.4 "/>
<polygon class="st4" points="439.7,245.1 382.6,247.6 387.9,277 396.3,259.3 416.6,268.5 "/>
<polygon class="st4" points="317.8,268.5 338,259.3 346.4,277 351.7,247.6 294.6,245.1 "/>
<polygon class="st5" points="294.6,245.1 318.6,291.8 317.8,268.5 "/>
<polygon class="st5" points="416.6,268.5 415.7,291.8 439.7,245.1 "/>
<polygon class="st5" points="351.7,247.6 346.4,277 353.1,311.6 354.5,266 "/>
<polygon class="st5" points="382.6,247.6 379.9,265.9 381.2,311.6 387.9,277 "/>
<polygon class="st6" points="387.9,277 381.2,311.6 386.1,314.9 415.7,291.8 416.6,268.5 "/>
<polygon class="st6" points="317.8,268.5 318.6,291.8 348.2,314.9 353.1,311.6 346.4,277 "/>
<polygon class="st7" points="388.5,346.8 388.8,337.4 386.3,335.1 348,335.1 345.6,337.4 345.8,346.8 313.8,331.7 325,340.8 
	347.7,356.5 386.6,356.5 409.3,340.8 420.5,331.7 "/>
<polygon class="st8" points="386.1,314.9 381.2,311.6 353.1,311.6 348.2,314.9 345.6,337.4 348,335.1 386.3,335.1 388.8,337.4 "/>
<polygon class="st9" points="488,196.4 496.5,155 483.8,116.6 386.1,189 423.6,220.8 476.7,236.4 488.4,222.6 483.3,219 
	491.5,211.6 485.3,206.7 493.4,200.5 "/>
<polygon class="st9" points="237.8,155 246.4,196.4 240.9,200.5 249,206.7 242.8,211.6 251,219 245.9,222.6 257.6,236.4 
	310.6,220.8 348.2,189 250.6,116.6 "/>
<polygon class="st6" points="476.7,236.4 423.6,220.8 439.7,245.1 415.7,291.8 447.4,291.4 494.5,291.4 "/>
<polygon class="st6" points="310.6,220.8 257.6,236.4 239.9,291.4 287,291.4 318.6,291.8 294.6,245.1 "/>
<polygon class="st6" points="382.6,247.6 386.1,189 401.4,147.3 332.9,147.3 348.2,189 351.7,247.6 353,266.1 353.1,311.6 
	381.2,311.6 381.3,266.1 "/>
</svg>
